<svg width="101" height="35" viewBox="0 0 101 35" fill="none" xmlns="http://www.w3.org/2000/svg">
<path opacity="0.51" fill-rule="evenodd" clip-rule="evenodd" d="M45.2102 31.7448V28.1638H45.2337L45.5073 29.0926L45.9866 30.667H46.4517L46.933 29.0926L47.2019 28.1638H47.2255V31.7448H47.9488V26.5424H47.1024L46.2185 29.4282L45.3392 26.5424H44.4902V31.7448H45.2102V31.7448ZM51.7346 31.7448L51.9107 30.718H53.0246L53.2007 31.7448H53.92L52.9191 26.5424H52.0123L51.0113 31.7448H51.7346V31.7448ZM52.462 27.5544H52.4774L52.9271 30.1268H52.0123L52.462 27.5544ZM57.7052 31.7448V28.2215H57.7287L58.0258 29.2704L58.8116 31.7448H59.5652V26.5424H58.8459V29.9926H58.8305L58.4944 28.8678L57.767 26.5424H56.9839V31.7448H57.7032H57.7052ZM63.3571 31.7448L63.5333 30.718H64.6478L64.8232 31.7448H65.5432L64.5416 26.5424H63.6348L62.6338 31.7448H63.3571V31.7448ZM64.0844 27.5544H64.0999L64.5496 30.1268H63.6348L64.0844 27.5544ZM68.4417 30.6456C68.4369 30.8014 68.4643 30.9565 68.5221 31.1012C68.5799 31.246 68.667 31.3774 68.7778 31.4871C68.9029 31.6016 69.0496 31.6898 69.2094 31.7465C69.3692 31.8032 69.5388 31.8273 69.7082 31.8173C69.8619 31.8279 70.0161 31.8047 70.16 31.7495C70.3038 31.6944 70.4339 31.6085 70.541 31.4979L70.5955 31.7448H70.9753V28.9134H69.6981V29.4396L70.2533 29.5174V30.6529C70.2506 30.7939 70.1932 30.9282 70.0931 31.0276C69.993 31.127 69.8581 31.1837 69.717 31.1856C69.5758 31.1875 69.4394 31.1346 69.3367 31.0379C69.2339 30.9413 69.1728 30.8085 69.1663 30.6677V27.5913C69.1713 27.4507 69.2308 27.3175 69.3321 27.2198C69.4335 27.1221 69.5689 27.0675 69.7098 27.0675C69.8508 27.0675 69.9862 27.1221 70.0875 27.2198C70.1889 27.3175 70.2483 27.4507 70.2533 27.5913V28.2517H70.9686V27.6202C70.9742 27.4658 70.9463 27.3119 70.8869 27.1692C70.8275 27.0266 70.7379 26.8983 70.6244 26.7934C70.3643 26.5818 70.0384 26.4674 69.7029 26.47C69.3674 26.4726 69.0434 26.5919 68.7866 26.8075C68.6735 26.9153 68.5844 27.0456 68.5251 27.19C68.4658 27.3344 68.4376 27.4897 68.4424 27.6457V30.6462L68.4417 30.6456ZM76.4477 26.5424H74.3168V31.7448H76.4477V31.1207H75.0361V29.3684H76.2797V28.7732H75.0361V27.137H76.4477V26.5424ZM80.4258 31.7448V28.1638H80.4494L80.723 29.0926L81.2043 30.667H81.6694L82.1501 29.0926L82.419 28.1638H82.4418V31.7448H83.1658V26.5424H82.3168L81.4335 29.4282L80.5536 26.5424H79.7046V31.7448H80.4238H80.4258ZM88.6786 26.5424H86.5477V31.7448H88.6786V31.1207H87.2669V29.3684H88.5098V28.7732H87.2669V27.137H88.6786V26.5424ZM92.6567 31.7448V28.2215H92.6802L92.9774 29.2704L93.7631 31.7448H94.5201V26.5424H93.8008V29.9926H93.7847L93.4486 28.8678L92.7212 26.5424H91.9354V31.7448H92.6547H92.6567ZM98.3873 27.1444V31.7448H99.0985V27.1444H99.9723V26.5404H97.5053V27.1444H98.3893H98.3873Z" fill="white"/>
<path fill-rule="evenodd" clip-rule="evenodd" d="M51.4145 21.0834C52.7295 21.1098 54.0363 20.8725 55.2578 20.3857C56.4793 19.8989 57.5906 19.1725 58.5259 18.2493C58.5888 18.2055 58.6405 18.1478 58.6772 18.0806C58.7139 18.0134 58.7345 17.9386 58.7373 17.8622C58.7401 17.7857 58.7252 17.7096 58.6936 17.6399C58.662 17.5702 58.6146 17.5088 58.5552 17.4605L56.2711 15.0376C56.2277 14.9787 56.1716 14.9304 56.107 14.8962C56.0423 14.862 55.8977 14.8399 55.8977 14.8399C55.8977 14.8399 55.7518 14.8508 55.6847 14.88C55.6176 14.9091 55.5579 14.953 55.5102 15.0084C54.4207 15.9423 53.0243 16.4417 51.5887 16.4108C50.8185 16.4279 50.0535 16.2816 49.3442 15.9815C48.635 15.6814 47.9977 15.2343 47.4744 14.6699C46.9359 14.1141 46.5126 13.4575 46.2289 12.738C45.9452 12.0184 45.8067 11.25 45.8213 10.4768C45.7914 8.9002 46.3807 7.37451 47.463 6.22605C47.9783 5.65442 48.6111 5.20053 49.3182 4.89541C50.0253 4.59028 50.79 4.4411 51.5601 4.45805C53.019 4.4343 54.4321 4.96725 55.5109 5.94813C55.5548 6.00282 55.6105 6.04696 55.6738 6.07729C55.7371 6.10762 55.8065 6.12337 55.8767 6.12337C55.9469 6.12337 56.0163 6.10762 56.0796 6.07729C56.1429 6.04696 56.1986 6.00282 56.2425 5.94813L58.5266 3.58153C58.591 3.53325 58.6427 3.47015 58.6774 3.3976C58.7121 3.32505 58.7288 3.2452 58.7259 3.16486C58.723 3.08452 58.7007 3.00606 58.6609 2.93616C58.6211 2.86627 58.565 2.80702 58.4973 2.76345C57.2294 1.60548 55.6975 0.773961 54.0347 0.341083C52.3719 -0.0917951 50.6284 -0.112964 48.9555 0.279429C47.2826 0.671823 45.7309 1.46592 44.4352 2.59277C43.1394 3.71963 42.1387 5.1452 41.5199 6.74573C40.9011 8.34626 40.6829 10.0734 40.8843 11.7772C41.0857 13.481 41.7006 15.11 42.6755 16.5227C43.6505 17.9355 44.9561 19.0893 46.479 19.8841C48.0019 20.6789 49.6961 21.0906 51.4145 21.0834ZM65.1248 20.6309C65.1762 20.6831 65.2377 20.7243 65.3055 20.7519C65.3734 20.7795 65.4463 20.7929 65.5195 20.7912H68.9728C69.1165 20.7798 69.2514 20.7177 69.3533 20.6159C69.4552 20.5142 69.5174 20.3795 69.5289 20.2361V13.37H72.6017C73.4615 13.3818 74.3145 13.2167 75.1075 12.8849C75.9006 12.5531 76.6167 12.0619 77.2113 11.4417C77.8301 10.838 78.3192 10.1147 78.6487 9.31596C78.9782 8.51724 79.1412 7.65986 79.1278 6.79615C79.1388 5.94399 78.9728 5.09881 78.6404 4.31386C78.3079 3.52891 77.8163 2.82122 77.1963 2.23539C76.5941 1.62334 75.8739 1.1395 75.0791 0.813088C74.2844 0.486678 73.4317 0.324476 72.5724 0.336266H65.5195C65.4463 0.3356 65.3737 0.3495 65.306 0.377162C65.2382 0.404824 65.1766 0.445689 65.1249 0.497371C65.0731 0.549052 65.0322 0.610515 65.0045 0.678167C64.9768 0.745819 64.9628 0.818304 64.9635 0.891389V20.2333C64.9611 20.3062 64.9736 20.3788 65.0004 20.4467C65.0272 20.5146 65.0676 20.5763 65.1191 20.6281L65.1248 20.6309ZM69.5289 4.63407H72.309C72.9179 4.61947 73.5078 4.84533 73.9507 5.26259C74.1663 5.45526 74.3379 5.69186 74.454 5.95642C74.5701 6.22098 74.6281 6.50734 74.6238 6.79615C74.6256 7.09976 74.5671 7.40071 74.4515 7.68156C74.336 7.96241 74.1657 8.21758 73.9507 8.43227C73.7357 8.64696 73.4801 8.81691 73.1988 8.93227C72.9174 9.04763 72.616 9.10611 72.3119 9.10432H69.5317V4.63407H69.5289ZM85.0393 20.7912C85.2673 20.8039 85.4932 20.7424 85.6832 20.616C85.8732 20.4895 86.0169 20.305 86.0929 20.09L87.1464 17.7526H95.1065L96.1601 20.0608C96.2361 20.2721 96.3749 20.4552 96.5579 20.5858C96.7409 20.7163 96.9595 20.7879 97.1843 20.7912H100.433C100.527 20.797 100.62 20.7785 100.705 20.7376C100.79 20.6967 100.862 20.6346 100.916 20.5575C100.969 20.4804 100.998 20.3899 101 20.2966C101.003 20.2034 100.979 20.1114 100.93 20.0316L91.7703 0.368333C91.7312 0.26925 91.662 0.184921 91.5724 0.127252C91.4827 0.0695833 91.3772 0.0414862 91.2707 0.046939H90.978C90.8715 0.0414862 90.766 0.0695833 90.6763 0.127252C90.5866 0.184921 90.5174 0.26925 90.4783 0.368333L81.3219 20.0288C81.2739 20.1087 81.2498 20.2007 81.2524 20.2939C81.2551 20.3871 81.2844 20.4776 81.3369 20.5547C81.3904 20.6318 81.4629 20.6939 81.5474 20.7348C81.632 20.7758 81.7257 20.7942 81.8195 20.7884H85.0386L85.0393 20.7912ZM91.0972 8.95823H91.1265L93.3506 13.7791H88.9023L91.0972 8.95823Z" fill="white"/>
<path d="M1.06923 25.0341C0.586721 24.7336 0.600785 24.0266 1.09487 23.7455L15.301 15.665C15.531 15.5342 15.8128 15.5342 16.0427 15.665L30.2488 23.7455C30.7429 24.0266 30.757 24.7336 30.2745 25.0341L16.0683 33.8803C15.8256 34.0314 15.5181 34.0314 15.2754 33.8803L1.06923 25.0341Z" fill="#0064F4"/>
<path d="M1.06923 25.0341C0.586721 24.7336 0.600785 24.0266 1.09487 23.7455L15.301 15.665C15.531 15.5342 15.8128 15.5342 16.0427 15.665L30.2488 23.7455C30.7429 24.0266 30.757 24.7336 30.2745 25.0341L16.0683 33.8803C15.8256 34.0314 15.5181 34.0314 15.2754 33.8803L1.06923 25.0341Z" fill="url(#paint0_linear_1796_1780)" fill-opacity="0.7" style="mix-blend-mode:overlay"/>
<path d="M1.06923 17.9179C0.586721 17.6174 0.600785 16.9103 1.09487 16.6293L15.301 8.54881C15.531 8.41803 15.8128 8.41803 16.0427 8.54881L30.2488 16.6293C30.7429 16.9103 30.757 17.6174 30.2745 17.9179L16.0683 26.7641C15.8256 26.9152 15.5181 26.9152 15.2754 26.7641L1.06923 17.9179Z" fill="#52A8F8"/>
<path d="M1.06923 17.9179C0.586721 17.6174 0.600785 16.9103 1.09487 16.6293L15.301 8.54881C15.531 8.41803 15.8128 8.41803 16.0427 8.54881L30.2488 16.6293C30.7429 16.9103 30.757 17.6174 30.2745 17.9179L16.0683 26.7641C15.8256 26.9152 15.5181 26.9152 15.2754 26.7641L1.06923 17.9179Z" fill="url(#paint1_linear_1796_1780)" fill-opacity="0.65" style="mix-blend-mode:overlay"/>
<path d="M1.06923 10.8012C0.586721 10.5007 0.600785 9.79365 1.09487 9.51261L15.301 1.43211C15.531 1.30134 15.8128 1.30134 16.0427 1.43211L30.2488 9.51261C30.7429 9.79365 30.757 10.5007 30.2745 10.8012L16.0683 19.6474C15.8256 19.7985 15.5181 19.7985 15.2754 19.6474L1.06923 10.8012Z" fill="white"/>
<defs>
<linearGradient id="paint0_linear_1796_1780" x1="15.6721" y1="34.1271" x2="15.6721" y2="17.5159" gradientUnits="userSpaceOnUse">
<stop stop-color="white"/>
<stop offset="1" stop-color="white" stop-opacity="0"/>
</linearGradient>
<linearGradient id="paint1_linear_1796_1780" x1="15.6721" y1="27.0109" x2="15.6721" y2="15.386" gradientUnits="userSpaceOnUse">
<stop stop-color="white"/>
<stop offset="0.197917" stop-color="white"/>
<stop offset="1" stop-color="white" stop-opacity="0"/>
</linearGradient>
</defs>
</svg>
