<svg width="66" height="69" viewBox="0 0 66 69" fill="none" xmlns="http://www.w3.org/2000/svg">
<path d="M2.57014 49.8299C1.41031 49.1077 1.44412 47.4081 2.63176 46.7325L31.7628 30.1628C32.3154 29.8484 32.9928 29.8484 33.5454 30.1628L62.6764 46.7325C63.8641 47.4081 63.8979 49.1077 62.7381 49.8299L33.6071 67.9698C33.0237 68.3331 32.2845 68.3331 31.7012 67.9698L2.57014 49.8299Z" fill="#267FFF"/>
<path d="M2.57014 49.8299C1.41031 49.1077 1.44412 47.4081 2.63176 46.7325L31.7628 30.1628C32.3154 29.8484 32.9928 29.8484 33.5454 30.1628L62.6764 46.7325C63.8641 47.4081 63.8979 49.1077 62.7381 49.8299L33.6071 67.9698C33.0237 68.3331 32.2845 68.3331 31.7012 67.9698L2.57014 49.8299Z" fill="url(#paint0_linear_1797_1791)" fill-opacity="0.7" style="mix-blend-mode:overlay"/>
<path d="M2.57014 35.0028C1.41031 34.2805 1.44412 32.5809 2.63176 31.9054L31.7628 15.3356C32.3154 15.0213 32.9928 15.0213 33.5454 15.3356L62.6764 31.9054C63.8641 32.5809 63.8979 34.2805 62.7381 35.0028L33.6071 53.1427C33.0237 53.506 32.2845 53.506 31.7012 53.1427L2.57014 35.0028Z" fill="#52A8F8"/>
<path d="M2.57014 35.0028C1.41031 34.2805 1.44412 32.5809 2.63176 31.9054L31.7628 15.3356C32.3154 15.0213 32.9928 15.0213 33.5454 15.3356L62.6764 31.9054C63.8641 32.5809 63.8979 34.2805 62.7381 35.0028L33.6071 53.1427C33.0237 53.506 32.2845 53.506 31.7012 53.1427L2.57014 35.0028Z" fill="url(#paint1_linear_1797_1791)" fill-opacity="0.65" style="mix-blend-mode:overlay"/>
<path d="M2.57014 20.1742C1.41031 19.4519 1.44412 17.7523 2.63176 17.0768L31.7628 0.506992C32.3154 0.192644 32.9928 0.192644 33.5454 0.506992L62.6764 17.0768C63.8641 17.7523 63.8979 19.4519 62.7381 20.1742L33.6071 38.3141C33.0237 38.6773 32.2845 38.6773 31.7012 38.3141L2.57014 20.1742Z" fill="#0044B0"/>
<path d="M2.57014 20.1742C1.41031 19.4519 1.44412 17.7523 2.63176 17.0768L31.7628 0.506992C32.3154 0.192644 32.9928 0.192644 33.5454 0.506992L62.6764 17.0768C63.8641 17.7523 63.8979 19.4519 62.7381 20.1742L33.6071 38.3141C33.0237 38.6773 32.2845 38.6773 31.7012 38.3141L2.57014 20.1742Z" fill="url(#paint2_linear_1797_1791)" fill-opacity="0.76" style="mix-blend-mode:overlay"/>
<defs>
<linearGradient id="paint0_linear_1797_1791" x1="32.6546" y1="68.5632" x2="32.6545" y2="33.9517" gradientUnits="userSpaceOnUse">
<stop stop-color="white"/>
<stop offset="1" stop-color="white" stop-opacity="0"/>
</linearGradient>
<linearGradient id="paint1_linear_1797_1791" x1="32.6546" y1="53.736" x2="32.6545" y2="29.5141" gradientUnits="userSpaceOnUse">
<stop stop-color="white"/>
<stop offset="0.197917" stop-color="white"/>
<stop offset="1" stop-color="white" stop-opacity="0"/>
</linearGradient>
<linearGradient id="paint2_linear_1797_1791" x1="32.6545" y1="31.7331" x2="32.6546" y2="4.3023e-07" gradientUnits="userSpaceOnUse">
<stop stop-color="white"/>
<stop offset="1" stop-color="white" stop-opacity="0"/>
</linearGradient>
</defs>
</svg>
